<svg xmlns="http://www.w3.org/2000/svg" viewBox="0 0 512 512">
  <rect width="512" height="512" rx="50" ry="50" fill="#3498db"/>
  <path d="M256 100c-85.5 0-155 69.5-155 155s69.5 155 155 155 155-69.5 155-155-69.5-155-155-155zm0 280c-69 0-125-56-125-125s56-125 125-125 125 56 125 125-56 125-125 125z" fill="#ecf0f1"/>
  <path d="M256 180c-41.4 0-75 33.6-75 75s33.6 75 75 75 75-33.6 75-75-33.6-75-75-75zm0 120c-24.8 0-45-20.2-45-45s20.2-45 45-45 45 20.2 45 45-20.2 45-45 45z" fill="#ecf0f1"/>
  <circle cx="256" cy="255" r="25" fill="#ecf0f1"/>
</svg> 